<!DOCTYPE svg PUBLIC "-//W3C//DTD SVG 1.1//EN" "http://www.w3.org/Graphics/SVG/1.1/DTD/svg11.dtd">
<!-- Uploaded to: SVG Repo, www.svgrepo.com, Transformed by: SVG Repo Mixer Tools -->
<svg version="1.1" id="Layer_1" xmlns="http://www.w3.org/2000/svg" xmlns:xlink="http://www.w3.org/1999/xlink" viewBox="0 0 512 512" xml:space="preserve" width="80px" height="80px" fill="#000000">
<g id="SVGRepo_bgCarrier" stroke-width="0"/>
<g id="SVGRepo_tracerCarrier" stroke-linecap="round" stroke-linejoin="round"/>
<g id="SVGRepo_iconCarrier"> <path style="fill:#8C6D50;" d="M116.881,439.658c-6.217,0-12.196-3.495-15.065-9.479c-3.989-8.31-0.479-18.283,7.826-22.272 l139.13-66.783c8.326-3.989,18.294-0.489,22.283,7.826c3.989,8.31,0.479,18.283-7.826,22.272l-139.13,66.783 C121.761,439.125,119.305,439.658,116.881,439.658z"/> <path style="fill:#765B43;" d="M395.119,439.658c-2.424,0-4.881-0.533-7.217-1.652l-139.13-66.783 c-8.304-3.989-11.815-13.962-7.826-22.272c3.989-8.316,13.945-11.815,22.283-7.826l139.13,66.783 c8.304,3.989,11.815,13.962,7.826,22.272C407.315,436.163,401.337,439.658,395.119,439.658z"/> <path style="fill:#6E6057;" d="M116.87,512H16.696C7.479,512,0,504.527,0,495.304v-116.87c0-9.223,7.479-16.696,16.696-16.696 H116.87c9.217,0,16.696,7.473,16.696,16.696v116.87C133.565,504.527,126.087,512,116.87,512z"/> <path style="fill:#615349;" d="M495.304,512H395.13c-9.217,0-16.696-7.473-16.696-16.696v-116.87 c0-9.223,7.479-16.696,16.696-16.696h100.174c9.217,0,16.696,7.473,16.696,16.696v116.87C512,504.527,504.521,512,495.304,512z"/> <path style="fill:#8C6D50;" d="M83.478,144.696H33.391C14.949,144.696,0,129.746,0,111.304V66.783 c0-18.442,14.949-33.391,33.391-33.391h50.087c9.22,0,16.696,7.475,16.696,16.696V128C100.174,137.22,92.699,144.696,83.478,144.696 z"/> <path style="fill:#765B43;" d="M478.609,144.696h-50.087c-9.22,0-16.696-7.475-16.696-16.696V50.087 c0-9.22,7.475-16.696,16.696-16.696h50.087c18.442,0,33.391,14.949,33.391,33.391v44.522 C512,129.746,497.051,144.696,478.609,144.696z"/> <path style="fill:#DA9A2B;" d="M428.522,244.87H83.478c-9.217,0-16.696-7.473-16.696-16.696V50.087C66.783,22.468,89.251,0,116.87,0 H395.13c27.619,0,50.087,22.468,50.087,50.087v178.087C445.217,237.397,437.739,244.87,428.522,244.87z"/> <path style="fill:#CF8B27;" d="M395.13,0H256v244.87h172.522c9.217,0,16.696-7.473,16.696-16.696V50.087 C445.217,22.468,422.749,0,395.13,0z"/> <path style="fill:#6E6057;" d="M100.174,211.478h311.652V50.087c0-9.206-7.49-16.696-16.696-16.696H116.87 c-9.206,0-16.696,7.49-16.696,16.696V211.478z"/> <path style="fill:#615349;" d="M395.13,33.391H256v178.087h155.826V50.087C411.826,40.881,404.336,33.391,395.13,33.391z"/> <rect x="239.304" style="fill:#DA9A2B;" width="33.391" height="244.87"/> <rect x="256" style="fill:#CF8B27;" width="16.696" height="244.87"/> <path style="fill:#E3B236;" d="M512,378.435H0V228.174c0-27.662,22.424-50.087,50.087-50.087h411.826 c27.662,0,50.087,22.424,50.087,50.087V378.435z"/> <path style="fill:#DA9A2B;" d="M461.913,178.087H256v200.348h256V228.174C512,200.511,489.576,178.087,461.913,178.087z"/> <path style="fill:#E2E7EC;" d="M395.13,328.348c-27.619,0-50.087-22.468-50.087-50.087s22.468-50.087,50.087-50.087 c27.619,0,50.087,22.468,50.087,50.087S422.749,328.348,395.13,328.348z"/> <path style="fill:#CCD5E0;" d="M445.217,278.261c0-27.619-22.468-50.087-50.087-50.087v100.174 C422.749,328.348,445.217,305.88,445.217,278.261z"/> <path style="fill:#E2E7EC;" d="M116.87,328.348c-27.619,0-50.087-22.468-50.087-50.087s22.468-50.087,50.087-50.087 s50.087,22.468,50.087,50.087S144.489,328.348,116.87,328.348z"/> <path style="fill:#CCD5E0;" d="M166.957,278.261c0-27.619-22.468-50.087-50.087-50.087v100.174 C144.489,328.348,166.957,305.88,166.957,278.261z"/> <g> <path style="fill:#8C6D50;" d="M294.957,261.565h-77.913c-9.217,0-16.696-7.473-16.696-16.696s7.479-16.696,16.696-16.696h77.913 c9.217,0,16.696,7.473,16.696,16.696S304.174,261.565,294.957,261.565z"/> <path style="fill:#8C6D50;" d="M294.957,328.348h-77.913c-9.217,0-16.696-7.473-16.696-16.696s7.479-16.696,16.696-16.696h77.913 c9.217,0,16.696,7.473,16.696,16.696S304.174,328.348,294.957,328.348z"/> </g> <g> <path style="fill:#765B43;" d="M294.957,294.957H256v33.391h38.957c9.217,0,16.696-7.473,16.696-16.696 S304.174,294.957,294.957,294.957z"/> <path style="fill:#765B43;" d="M294.957,228.174H256v33.391h38.957c9.217,0,16.696-7.473,16.696-16.696 S304.174,228.174,294.957,228.174z"/> </g> </g>
</svg>