<!DOCTYPE svg PUBLIC "-//W3C//DTD SVG 1.1//EN" "http://www.w3.org/Graphics/SVG/1.1/DTD/svg11.dtd">
<!-- Uploaded to: SVG Repo, www.svgrepo.com, Transformed by: SVG Repo Mixer Tools -->
<svg height="80px" width="80px" version="1.1" id="Layer_1" xmlns="http://www.w3.org/2000/svg" xmlns:xlink="http://www.w3.org/1999/xlink" viewBox="0 0 512 512" xml:space="preserve" fill="#000000">
<g id="SVGRepo_bgCarrier" stroke-width="0"/>
<g id="SVGRepo_tracerCarrier" stroke-linecap="round" stroke-linejoin="round"/>
<g id="SVGRepo_iconCarrier"> <path style="fill:#AFB9D2;" d="M255.808,309.285c-13.527,0-24.531,11.005-24.531,24.531c0,13.533,11.005,24.543,24.531,24.543 c13.533,0,24.543-11.01,24.543-24.543C280.351,320.29,269.342,309.285,255.808,309.285z"/> <g> <path style="fill:#707487;" d="M240.878,165.106c0,8.232,6.698,14.93,14.93,14.93s14.93-6.698,14.93-14.93 c0-8.232-6.698-14.93-14.93-14.93S240.878,156.874,240.878,165.106z"/> <path style="fill:#707487;" d="M255.808,412.399c-13.365,0-24.239,10.879-24.239,24.25v62.47h48.489v-62.47 C280.058,423.278,269.18,412.399,255.808,412.399z"/> </g> <path style="fill:#AF6964;" d="M259.279,186.906l-2.959,0.138c-0.164,0.007-0.328,0.016-0.459,0.016c-0.004,0-0.006,0-0.009,0 c-0.149-0.006-0.297-0.011-0.453-0.011h-2.793l-51.023,63.003L175.503,499.12h49.041v-62.47c0-17.246,14.026-31.276,31.264-31.276 c17.246,0,31.276,14.03,31.276,31.276v62.47h49.042L309.94,249.467L259.279,186.906z M255.808,365.385 c-17.4,0-31.557-14.161-31.557-31.569c0-17.4,14.157-31.557,31.557-31.557c17.407,0,31.569,14.157,31.569,31.557 C287.377,351.224,273.215,365.385,255.808,365.385z"/> <g> <path style="fill:#EBD2AF;" d="M241.067,181.356c-0.605-0.549-1.144-1.1-1.648-1.682l-3.715-4.301L105.688,281.12l34.092,34.092 l105.383-130.137L241.067,181.356z"/> <path style="fill:#EBD2AF;" d="M239.696,150.22c0.604-0.645,1.165-1.189,1.715-1.663l4.31-3.714L139.793,14.598l-34.09,34.105 l130.268,105.493L239.696,150.22z"/> <path style="fill:#EBD2AF;" d="M276.071,175.193l-3.714,4.31c-0.501,0.582-1.056,1.158-1.65,1.714l-3.978,3.724l105.482,130.271 l34.092-34.092L276.071,175.193z"/> <path style="fill:#EBD2AF;" d="M272.049,150.345l3.721,4.047L406.301,48.704l-34.09-34.106L266.172,144.964l4.191,3.722 C270.948,149.208,271.515,149.765,272.049,150.345z"/> </g> <path d="M255.808,296.404c-20.632,0-37.412,16.78-37.412,37.412c0,20.644,16.78,37.424,37.412,37.424 c20.644,0,37.424-16.78,37.424-37.424C293.231,313.184,276.452,296.404,255.808,296.404z M255.808,352.505 c-10.304,0-18.677-8.384-18.677-18.688c0-10.304,8.372-18.677,18.677-18.677s18.688,8.372,18.688,18.677 C274.496,344.121,266.112,352.505,255.808,352.505z"/> <path d="M417.446,273.583L283.618,164.719c-0.012-0.035-0.012-0.07-0.012-0.105l133.828-108.36c2.061-1.674,3.326-4.145,3.466-6.792 c0.129-2.646-0.855-5.234-2.74-7.119L378.559,2.741c-1.874-1.874-4.461-2.869-7.108-2.728c-2.646,0.129-5.105,1.382-6.78,3.443 L255.995,137.061L147.331,3.456c-1.674-2.061-4.145-3.314-6.792-3.443c-2.646-0.141-5.234,0.855-7.108,2.728L93.83,42.343 c-1.874,1.885-2.869,4.473-2.728,7.119c0.141,2.646,1.393,5.117,3.454,6.792l133.465,108.067c-0.012,0.234-0.012,0.468-0.012,0.714 L94.544,273.583c-2.061,1.674-3.314,4.133-3.443,6.792c-0.141,2.646,0.855,5.222,2.728,7.096l39.602,39.613 c1.768,1.756,4.145,2.74,6.628,2.74c0.164,0,0.328,0,0.492-0.012c2.646-0.141,5.117-1.405,6.792-3.466l38.243-47.236 l-22.424,214.155h-10.105c-5.164,0-9.368,4.192-9.368,9.368s4.204,9.368,9.368,9.368h18.548c0,0,0,0,0.012,0c0,0,0,0,0.012,0 h168.371h0.012h0.012h18.536c5.176,0,9.368-4.192,9.368-9.368s-4.192-9.368-9.368-9.368h-10.105l-22.517-214.729l38.723,47.81 c1.663,2.061,4.133,3.326,6.78,3.466c0.164,0.012,0.328,0.012,0.492,0.012c2.482,0,4.871-0.984,6.628-2.74l39.602-39.613 c1.874-1.874,2.869-4.45,2.74-7.096C420.76,277.716,419.507,275.257,417.446,273.583z M372.657,23.327l24.906,24.918 l-121.205,98.137c-0.667-0.726-1.37-1.417-2.108-2.073L372.657,23.327z M255.808,156.031c5.012,0,9.075,4.075,9.075,9.075 c0,5-4.063,9.075-9.075,9.075c-5,0-9.075-4.075-9.075-9.075C246.733,160.106,250.808,156.031,255.808,156.031z M114.439,48.245 l24.906-24.918l98.243,120.795c-0.761,0.656-1.475,1.358-2.166,2.096L114.439,48.245z M139.322,306.475l-24.906-24.906 l120.573-98.067c0.667,0.773,1.382,1.499,2.143,2.19L139.322,306.475z M274.203,493.265h-36.78v-56.616 c0-10.14,8.243-18.396,18.384-18.396s18.396,8.255,18.396,18.396V493.265z M329.625,493.265h-36.686v-56.616 c0-20.48-16.651-37.131-37.131-37.131c-20.468,0-37.119,16.651-37.119,37.131v56.616h-36.686l25.222-240.877l48.173-59.484 c0.141,0,0.269,0.012,0.41,0.012c0.269,0,0.527-0.012,0.785-0.023l47.705,58.911L329.625,493.265z M372.669,306.475l-97.962-120.983 c0.726-0.679,1.429-1.405,2.084-2.166l120.784,98.243L372.669,306.475z"/> </g>
</svg>