<!DOCTYPE svg PUBLIC "-//W3C//DTD SVG 1.1//EN" "http://www.w3.org/Graphics/SVG/1.1/DTD/svg11.dtd">
<!-- Uploaded to: SVG Repo, www.svgrepo.com, Transformed by: SVG Repo Mixer Tools -->
<svg version="1.1" id="Layer_1" xmlns="http://www.w3.org/2000/svg" xmlns:xlink="http://www.w3.org/1999/xlink" viewBox="0 0 512 512" xml:space="preserve" width="80px" height="80px" fill="#000000">
<g id="SVGRepo_bgCarrier" stroke-width="0"/>
<g id="SVGRepo_tracerCarrier" stroke-linecap="round" stroke-linejoin="round"/>
<g id="SVGRepo_iconCarrier"> <polygon style="fill:#EDEDED;" points="197.938,241.485 197.938,178.144 229.608,188.701 229.608,241.485 "/> <path style="fill:#F6E27D;" d="M303.505,220.371c-84.454,0-147.794,23.632-147.794,52.784v63.34h158.351V220.371H303.505z"/> <path style="fill:#EFC27B;" d="M314.062,220.371h-10.557c-18.797,0-36.544,1.173-52.783,3.315v112.809h63.34V220.371z"/> <path style="fill:#F8F8F9;" d="M303.505,281.072h-95.01c-4.373,0-7.918-3.545-7.918-7.918c0-4.373,3.545-7.918,7.918-7.918h95.01 c4.373,0,7.918,3.545,7.918,7.918C311.423,277.527,307.878,281.072,303.505,281.072z"/> <path style="fill:#EDEDED;" d="M303.505,265.237h-52.783v15.835h52.783c4.373,0,7.918-3.545,7.918-7.918 C311.423,268.782,307.878,265.237,303.505,265.237z"/> <polygon style="fill:#D1E5F5;" points="430.186,125.361 461.856,252.041 303.505,325.938 303.505,114.804 "/> <path style="fill:#F6E27D;" d="M398.515,83.134c23.321,0,42.227,18.906,42.227,42.227H292.948V83.134H398.515z"/> <polygon style="fill:#B4D8F1;" points="461.856,252.041 430.186,125.361 303.505,252.041 303.505,336.495 "/> <polygon style="fill:#EFC27B;" points="482.969,252.041 356.289,252.041 335.175,315.381 335.175,336.495 482.969,336.495 "/> <g> <rect x="377.402" y="294.268" style="fill:#58575D;" width="63.34" height="63.34"/> <rect x="155.711" y="325.938" style="fill:#58575D;" width="95.01" height="52.784"/> </g> <circle style="fill:#88888F;" cx="192.66" cy="373.443" r="47.505"/> <path style="fill:#EDEDED;" d="M192.66,386.639c-7.277,0-13.196-5.919-13.196-13.196c0-7.277,5.919-13.196,13.196-13.196 c7.277,0,13.196,5.919,13.196,13.196C205.856,380.72,199.937,386.639,192.66,386.639z"/> <path style="fill:#88888F;" d="M504.082,428.866H145.155c-4.373,0-7.918-3.545-7.918-7.918c0-4.373,3.545-7.918,7.918-7.918h358.928 c4.373,0,7.918,3.545,7.918,7.918C512,425.321,508.455,428.866,504.082,428.866z"/> <path style="fill:#F8E99B;" d="M28.702,399.835h47.505c26.237,0,47.505-21.269,47.505-47.505v-47.505H76.207 c-26.237,0-47.505,21.269-47.505,47.505C28.702,352.33,28.702,399.835,28.702,399.835z"/> <path style="fill:#F6E27D;" d="M28.371,399.835H7.918c-4.373,0-7.918-3.545-7.918-7.918S3.545,384,7.918,384h20.454 c4.373,0,7.918,3.545,7.918,7.918S32.744,399.835,28.371,399.835z"/> <g> <path style="fill:#797781;" d="M504.082,413.031H250.722v15.835h253.361c4.373,0,7.918-3.545,7.918-7.918 C512,416.576,508.455,413.031,504.082,413.031z"/> <circle style="fill:#797781;" cx="440.742" cy="357.608" r="63.34"/> </g> <circle style="fill:#DBDBDB;" cx="440.742" cy="357.608" r="21.113"/> <rect x="240.165" y="315.381" style="fill:#F8E99B;" width="137.237" height="63.34"/> <rect x="250.722" y="315.381" style="fill:#F6E27D;" width="126.68" height="63.34"/> <path style="fill:#797781;" d="M240.165,333.856H124.041c-4.373,0-7.918-3.545-7.918-7.918c0-4.373,3.545-7.918,7.918-7.918h116.124 c4.373,0,7.918,3.545,7.918,7.918C248.082,330.311,244.538,333.856,240.165,333.856z"/> </g>
</svg>