<!DOCTYPE svg PUBLIC "-//W3C//DTD SVG 1.1//EN" "http://www.w3.org/Graphics/SVG/1.1/DTD/svg11.dtd">
<!-- Uploaded to: SVG Repo, www.svgrepo.com, Transformed by: SVG Repo Mixer Tools -->
<svg height="80px" width="80px" version="1.1" id="Layer_1" xmlns="http://www.w3.org/2000/svg" xmlns:xlink="http://www.w3.org/1999/xlink" viewBox="0 0 512 512" xml:space="preserve" fill="#000000">
<g id="SVGRepo_bgCarrier" stroke-width="0"/>
<g id="SVGRepo_tracerCarrier" stroke-linecap="round" stroke-linejoin="round"/>
<g id="SVGRepo_iconCarrier"> <path style="fill:#CCCCCC;" d="M115.526,361.914l43.994-43.994l-48.789-48.789l-89.036,89.036c-0.509,0.509-1.004,1.026-1.485,1.551 c-22.922,25.016-3.685,65.437,30.235,64.599l38.181-0.943l-0.943,38.181c-0.838,33.919,39.583,53.158,64.599,30.235 c0.525-0.481,1.042-0.976,1.55-1.485l89.036-89.036l-48.789-48.789l-43.994,43.994L115.526,361.914z"/> <path style="fill:#8C6239;" d="M494.661,51.898c9.543-9.543,9.543-25.016,0-34.56l0,0c-9.543-9.543-25.015-9.543-34.559,0 L115.526,361.914l34.56,34.559L494.661,51.898z"/> <path d="M12.69,352.828c-13.24,14.45-16.379,34.613-8.189,52.617c8.382,18.426,26.057,29.603,46.197,29.067l27.468-0.678 l-0.678,27.468c-0.497,20.114,10.642,37.815,29.067,46.197c6.643,3.021,13.577,4.501,20.41,4.501 c11.691-0.001,23.085-4.332,32.201-12.685l90.915-90.835c3.983-3.983,3.983-10.441,0-14.425l-41.578-41.576L501.872,59.11 c13.503-13.504,13.503-35.478,0-48.981c0,0,0-0.001-0.001-0.001c-13.504-13.504-35.477-13.504-48.982,0L159.52,303.496 l-41.577-41.577c-3.984-3.982-10.44-3.982-14.425,0L12.69,352.828z M110.731,283.555l34.365,34.365l-36.782,36.782 c-3.983,3.983-3.983,10.441,0,14.425l10.074,10.074c-0.033,0.032-0.068,0.059-0.101,0.091l-33.985,33.985l-34.107,0.842 c-14.108,0.368-23.257-8.616-27.126-17.121c-4.816-10.589-3.074-21.949,4.667-30.396L110.731,283.555z M145.391,484.27 c-8.441,7.735-19.804,9.476-30.39,4.661c-8.506-3.868-17.47-13.026-17.121-27.126l0.842-34.101l33.989-33.988 c0.033-0.033,0.059-0.068,0.091-0.101l10.071,10.072c1.992,1.991,4.602,2.987,7.212,2.987c2.61,0,5.22-0.996,7.212-2.987 l36.782-36.782l34.365,34.365L145.391,484.27z M487.449,44.686L150.085,382.049l-20.135-20.135L467.312,24.551 c5.551-5.551,14.587-5.55,20.136-0.001C492.999,30.102,492.999,39.136,487.449,44.686z"/> <path d="M90.47,348.155c-2.611,0-5.22-0.996-7.212-2.987c-3.983-3.983-3.983-10.441,0-14.425l20.893-20.894 c3.982-3.982,10.44-3.982,14.425,0c3.983,3.983,3.983,10.441,0,14.425l-20.893,20.894C95.691,347.159,93.081,348.155,90.47,348.155z "/> <path d="M60.359,378.265c-2.611,0-5.22-0.996-7.212-2.987c-3.983-3.983-3.983-10.441,0-14.425l3.687-3.687 c3.984-3.982,10.44-3.982,14.425,0c3.983,3.983,3.983,10.441,0,14.425l-3.687,3.687C65.579,377.27,62.969,378.265,60.359,378.265z"/> </g>
</svg>