<!DOCTYPE svg PUBLIC "-//W3C//DTD SVG 1.1//EN" "http://www.w3.org/Graphics/SVG/1.1/DTD/svg11.dtd">
<!-- Uploaded to: SVG Repo, www.svgrepo.com, Transformed by: SVG Repo Mixer Tools -->
<svg height="80px" width="80px" version="1.1" id="Layer_1" xmlns="http://www.w3.org/2000/svg" xmlns:xlink="http://www.w3.org/1999/xlink" viewBox="0 0 511.999 511.999" xml:space="preserve" fill="#000000">
<g id="SVGRepo_bgCarrier" stroke-width="0"/>
<g id="SVGRepo_tracerCarrier" stroke-linecap="round" stroke-linejoin="round"/>
<g id="SVGRepo_iconCarrier"> <path style="fill:#F7931E;" d="M276.574,208.499c-6.534,1.892-13.431,2.926-20.575,2.926c-7.144,0-14.041-1.034-20.575-2.926 c-16.753,49.383-40.586,112.074-59.082,130.571c-12.178,12.178-27.247,19.688-42.997,22.563 c18.624,65.656,122.654,140.168,122.654,140.168s104.03-74.511,122.655-140.169c-15.75-2.875-30.82-10.385-42.997-22.563 C317.16,320.573,293.327,257.882,276.574,208.499z"/> <g> <path style="fill:#CCCCCC;" d="M235.424,208.499c-21.628-6.262-39.168-22.13-47.687-42.696 c-48.762,16.672-108.813,39.78-126.847,57.814c-31.882,31.882-31.882,83.571,0,115.453c19.704,19.704,46.971,27.214,72.456,22.563 c15.75-2.875,30.82-10.385,42.997-22.563C194.839,320.573,218.671,257.882,235.424,208.499z"/> <path style="fill:#CCCCCC;" d="M451.109,223.618c-18.034-18.034-78.084-41.143-126.848-57.814 c-8.519,20.567-26.06,36.434-47.687,42.696c16.753,49.383,40.586,112.074,59.083,130.571 c12.177,12.178,27.247,19.688,42.997,22.563c25.484,4.652,52.751-2.859,72.456-22.563 C482.991,307.188,482.991,255.498,451.109,223.618z"/> </g> <path style="fill:#F7931E;" d="M255.999,63.69c-40.796,0-73.868,33.072-73.868,73.868c0,10.006,2,19.543,5.604,28.246 c8.519,20.567,26.06,36.434,47.687,42.696c6.534,1.892,13.431,2.926,20.575,2.926s14.041-1.034,20.575-2.926 c21.628-6.262,39.168-22.13,47.687-42.696c3.605-8.703,5.604-18.239,5.604-28.246C329.867,96.761,296.795,63.69,255.999,63.69z"/> <path d="M306.942,384.642H281.47c-5.632,0-10.199-4.566-10.199-10.199c0-5.633,4.567-10.199,10.199-10.199h25.473 c5.632,0,10.199,4.566,10.199,10.199C317.141,380.075,312.575,384.642,306.942,384.642z"/> <path d="M119.727,336.246c-30.203,0-54.775-24.572-54.775-54.775c0-5.633,4.567-10.199,10.199-10.199s10.199,4.566,10.199,10.199 c0,18.955,15.421,34.376,34.376,34.376c5.632,0,10.199,4.566,10.199,10.199C129.926,331.68,125.359,336.246,119.727,336.246z"/> <path d="M394.818,336.246c-5.632,0-10.199-4.566-10.199-10.199c0-5.633,4.567-10.199,10.199-10.199 c18.955,0,34.376-15.421,34.376-34.376c0-5.633,4.567-10.199,10.199-10.199c5.632,0,10.199,4.566,10.199,10.199 C449.593,311.674,425.022,336.246,394.818,336.246z"/> <path d="M458.321,216.405l-1.397-1.34c-15.288-14.093-52.905-31.855-111.891-52.825c-2.642-0.939-5.27-1.864-7.88-2.775 c1.889-6.99,2.914-14.33,2.914-21.908c0-20.179-7.151-38.715-19.046-53.22c1.208-35.459,30.41-63.938,66.157-63.938 c5.632,0,10.199-4.566,10.199-10.199S392.809,0,387.177,0c-41.254,0-75.84,28.999-84.503,67.678 c-13.361-8.954-29.417-14.187-46.675-14.187s-33.314,5.233-46.675,14.188C200.661,28.999,166.075,0,124.821,0 c-5.632,0-10.199,4.566-10.199,10.199s4.567,10.199,10.199,10.199c35.747,0,64.951,28.479,66.157,63.938 c-11.894,14.505-19.046,33.042-19.046,53.22c0,7.578,1.025,14.918,2.914,21.908c-2.61,0.911-5.238,1.836-7.88,2.775 c-60.872,21.64-98.987,39.864-113.289,54.165c-35.806,35.807-35.806,94.069,0,129.877c17.904,17.904,41.421,26.856,64.938,26.856 c2.564,0,5.126-0.126,7.683-0.34c9.268,24.694,29.249,52.358,59.764,82.637c31.594,31.35,62.689,53.721,63.998,54.658 c1.775,1.272,3.856,1.907,5.938,1.907c2.082,0,4.163-0.635,5.938-1.907c1.309-0.936,32.404-23.307,63.998-54.658 c30.514-30.279,50.495-57.943,59.764-82.637c2.557,0.213,5.119,0.34,7.683,0.34c23.517,0,47.035-8.952,64.938-26.856 C494.128,310.475,494.128,252.212,458.321,216.405z M255.999,73.889c35.107,0,63.669,28.561,63.669,63.669 c0,34.664-29.079,63.566-63.669,63.669s-63.669-29.156-63.669-63.669C192.331,102.45,220.892,73.889,255.999,73.889z M283.679,258.558c6.105,16.021,11.904,30.033,17.384,42.007h-90.125c5.479-11.974,11.278-25.987,17.384-42.007L283.679,258.558 L283.679,258.558z M235.869,238.16c0.614-1.705,1.23-3.424,1.849-5.166c1.5-4.221,2.965-8.408,4.391-12.537 c4.521,0.755,9.157,1.168,13.889,1.168c4.732,0,9.368-0.413,13.889-1.168c1.426,4.129,2.89,8.315,4.391,12.537 c0.619,1.742,1.235,3.462,1.849,5.166H235.869z M121.031,352.69c-19.09,0.64-38.39-6.293-52.929-20.833 c-27.854-27.854-27.854-73.175,0-101.028c15.102-15.102,66.574-35.729,114.446-52.444c8.96,16.055,23.024,28.881,39.988,36.272 c-16.879,48.632-38.009,101.803-53.406,117.2c-8.133,8.133-17.76,13.873-28.002,17.256 C134.604,351.269,127.833,352.462,121.031,352.69z M255.999,489.147c-13.676-10.268-32.978-26.17-51.885-44.646h103.772 C288.977,462.976,269.674,478.879,255.999,489.147z M327.41,424.203c-0.447-0.06-0.9-0.102-1.364-0.102H184.508 c-11.5-12.808-21.962-26.23-29.771-39.46h78.339c5.632,0,10.199-4.566,10.199-10.199c0-5.633-4.567-10.199-10.199-10.199h-75 c9.22-4.369,17.861-10.344,25.479-17.962c5.247-5.247,11.024-13.713,17.302-25.318h110.286 c6.278,11.606,12.055,20.072,17.302,25.318c10.691,10.691,23.39,18.164,36.888,22.471 C357.726,386.952,343.595,406.19,327.41,424.203z M443.897,331.858c-14.539,14.54-33.839,21.472-52.929,20.833 c-6.802-0.228-13.573-1.421-20.098-3.576c-10.242-3.383-19.869-9.123-28.002-17.256c-15.393-15.393-36.524-68.566-53.404-117.201 c16.963-7.392,31.026-20.218,39.986-36.272c47.872,16.715,99.344,37.342,114.446,52.445 C471.75,258.682,471.75,304.004,443.897,331.858z"/> </g>
</svg>