<!DOCTYPE svg PUBLIC "-//W3C//DTD SVG 1.1//EN" "http://www.w3.org/Graphics/SVG/1.1/DTD/svg11.dtd">
<!-- Uploaded to: SVG Repo, www.svgrepo.com, Transformed by: SVG Repo Mixer Tools -->
<svg height="80px" width="80px" version="1.1" id="Layer_1" xmlns="http://www.w3.org/2000/svg" xmlns:xlink="http://www.w3.org/1999/xlink" viewBox="0 0 512 512" xml:space="preserve" fill="#000000">
<g id="SVGRepo_bgCarrier" stroke-width="0"/>
<g id="SVGRepo_tracerCarrier" stroke-linecap="round" stroke-linejoin="round"/>
<g id="SVGRepo_iconCarrier"> <path style="fill:#CCCCCC;" d="M482.564,332.945H346.561V195.409h32.247c10.418,0,18.864-8.446,18.864-18.864l0,0 c0-10.418-8.446-18.864-18.864-18.864H139.605c-10.418,0-18.864,8.446-18.864,18.864l0,0c0,10.418,8.446,18.864,18.864,18.864 h32.247v137.537H29.436c-10.625,0-19.237,8.612-19.237,19.237s8.612,19.237,19.237,19.237h5.343v73.74h442.441v-73.74h5.343 c10.625,0,19.237-8.612,19.237-19.237S493.189,332.945,482.564,332.945z"/> <path d="M512,352.183c0-16.231-13.205-29.436-29.436-29.436h-22.93v-30.411c0-5.632-4.567-10.199-10.199-10.199 c-5.632,0-10.199,4.567-10.199,10.199v30.411h-82.475V205.608h22.048c16.026,0,29.064-13.038,29.064-29.064 s-13.039-29.065-29.065-29.065H139.605c-16.026,0-29.064,13.039-29.064,29.065s13.038,29.064,29.064,29.064h22.048v117.139H79.177 v-30.411c0-5.632-4.567-10.199-10.199-10.199c-5.632,0-10.199,4.567-10.199,10.199v30.411H29.436 C13.205,322.746,0,335.952,0,352.183c0,14.577,10.652,26.705,24.58,29.028v63.949c0,5.632,4.567,10.199,10.199,10.199h442.441 c5.632,0,10.199-4.567,10.199-10.199v-63.949C501.348,378.888,512,366.759,512,352.183z M139.605,185.21 c-4.778,0-8.665-3.888-8.665-8.665c0-4.779,3.888-8.666,8.665-8.666h239.203c4.778,0,8.665,3.888,8.665,8.666 c0,4.778-3.888,8.665-8.665,8.665H139.605z M182.051,205.608h154.311v117.139h-63.75v-30.411c0-5.632-4.567-10.199-10.199-10.199 c-5.632,0-10.199,4.567-10.199,10.199v30.411h-70.162V205.608z M467.022,434.96H44.978v-53.342h422.043V434.96z M29.436,361.22 c-4.983,0-9.038-4.054-9.038-9.036s4.055-9.038,9.038-9.038h453.127c4.983,0,9.038,4.055,9.038,9.038s-4.055,9.036-9.038,9.036 H29.436z"/> <path d="M68.978,134.215c5.632,0,10.199-4.567,10.199-10.199c0-25.902,21.074-46.977,46.977-46.977s46.977,21.074,46.977,46.977 c0,5.632,4.567,10.199,10.199,10.199s10.199-4.567,10.199-10.199c0-37.151-30.224-67.375-67.375-67.375 s-67.375,30.224-67.375,67.375C58.779,129.648,63.345,134.215,68.978,134.215z"/> <path d="M68.978,258.718c5.632,0,10.199-4.567,10.199-10.199v-90.305c0-5.632-4.567-10.199-10.199-10.199 c-5.632,0-10.199,4.567-10.199,10.199v90.305C58.779,254.151,63.345,258.718,68.978,258.718z"/> <path d="M262.412,268.336c5.632,0,10.199-4.567,10.199-10.199v-26.718c0-5.632-4.567-10.199-10.199-10.199 c-5.632,0-10.199,4.567-10.199,10.199v26.717C252.213,263.769,256.78,268.336,262.412,268.336z"/> <path d="M262.412,134.748c5.632,0,10.199-4.567,10.199-10.199v-56.64c0-5.632-4.567-10.199-10.199-10.199 c-5.632,0-10.199,4.567-10.199,10.199v56.64C252.213,130.182,256.78,134.748,262.412,134.748z"/> <path d="M335.084,134.215c5.632,0,10.199-4.567,10.199-10.199c0-25.902,21.074-46.977,46.977-46.977s46.977,21.074,46.977,46.977 c0,5.632,4.567,10.199,10.199,10.199c5.632,0,10.199-4.567,10.199-10.199c0-37.151-30.224-67.375-67.375-67.375 s-67.375,30.224-67.375,67.375C324.884,129.648,329.452,134.215,335.084,134.215z"/> <path d="M449.434,148.014c-5.632,0-10.199,4.567-10.199,10.199v90.305c0,5.632,4.567,10.199,10.199,10.199 c5.632,0,10.199-4.567,10.199-10.199v-90.305C459.633,152.582,455.067,148.014,449.434,148.014z"/> </g>
</svg>