<!DOCTYPE svg PUBLIC "-//W3C//DTD SVG 1.1//EN" "http://www.w3.org/Graphics/SVG/1.1/DTD/svg11.dtd">
<!-- Uploaded to: SVG Repo, www.svgrepo.com, Transformed by: SVG Repo Mixer Tools -->
<svg version="1.1" id="Layer_1" xmlns="http://www.w3.org/2000/svg" xmlns:xlink="http://www.w3.org/1999/xlink" viewBox="0 0 512 512" xml:space="preserve" width="80px" height="80px" fill="#000000">
<g id="SVGRepo_bgCarrier" stroke-width="0"/>
<g id="SVGRepo_tracerCarrier" stroke-linecap="round" stroke-linejoin="round"/>
<g id="SVGRepo_iconCarrier"> <g> <path style="fill:#51B58B;" d="M152.338,295.3L152.338,295.3c-10.888,0-19.714-8.826-19.714-19.714V29.913 c0-10.888,8.826-19.714,19.714-19.714l0,0c10.888,0,19.714,8.826,19.714,19.714v245.672 C172.053,286.473,163.227,295.3,152.338,295.3z"/> <path style="fill:#51B58B;" d="M191.767,295.3L191.767,295.3c-10.888,0-19.714-8.826-19.714-19.714V29.913 c0-10.888,8.826-19.714,19.714-19.714l0,0c10.888,0,19.714,8.826,19.714,19.714v245.672 C211.481,286.473,202.655,295.3,191.767,295.3z"/> <path style="fill:#51B58B;" d="M231.197,295.3L231.197,295.3c-10.888,0-19.714-8.826-19.714-19.714V29.913 c0-10.888,8.826-19.714,19.714-19.714l0,0c10.888,0,19.714,8.826,19.714,19.714v245.672 C250.911,286.473,242.084,295.3,231.197,295.3z"/> <path style="fill:#51B58B;" d="M270.625,295.3L270.625,295.3c-10.888,0-19.714-8.826-19.714-19.714V29.913 c0-10.888,8.826-19.714,19.714-19.714l0,0c10.888,0,19.714,8.826,19.714,19.714v245.672 C290.34,286.473,281.513,295.3,270.625,295.3z"/> <path style="fill:#51B58B;" d="M310.054,295.3L310.054,295.3c-10.888,0-19.714-8.826-19.714-19.714V29.913 c0-10.888,8.826-19.714,19.714-19.714l0,0c10.888,0,19.714,8.826,19.714,19.714v245.672 C329.768,286.473,320.941,295.3,310.054,295.3z"/> <path style="fill:#51B58B;" d="M329.768,329.932V29.913c0-10.888,8.826-19.714,19.714-19.714l0,0 c10.888,0,19.714,8.826,19.714,19.714v300.018h-39.428V329.932z"/> </g> <g> <rect x="318.715" y="330.189" style="fill:#F7931E;" width="60.665" height="85.938"/> <rect x="332.8" y="416.128" style="fill:#F7931E;" width="32.352" height="85.673"/> </g> <path d="M379.396,319.995V29.913C379.396,13.419,365.977,0,349.483,0c-7.547,0-14.445,2.815-19.714,7.443 C324.5,2.815,317.601,0,310.055,0c-7.547,0-14.446,2.815-19.715,7.443C285.071,2.815,278.172,0,270.625,0 c-7.547,0-14.445,2.815-19.714,7.443C245.642,2.815,238.744,0,231.197,0c-7.547,0-14.445,2.815-19.714,7.443 C206.214,2.815,199.315,0,191.767,0c-7.547,0-14.445,2.815-19.714,7.443C166.785,2.815,159.886,0,152.338,0 c-16.494,0-29.914,13.419-29.914,29.913v245.672c0,16.494,13.419,29.913,29.914,29.913c7.547,0,14.446-2.815,19.715-7.443 c5.269,4.628,12.167,7.443,19.714,7.443c7.547,0,14.446-2.815,19.715-7.443c5.269,4.628,12.167,7.443,19.714,7.443 c7.547,0,14.446-2.815,19.715-7.443c5.269,4.628,12.167,7.443,19.714,7.443c7.547,0,14.445-2.815,19.714-7.443 c5.269,4.628,12.168,7.443,19.715,7.443c3.326,0,6.523-0.554,9.515-1.56v16.056h-0.853c-5.632,0-10.199,4.567-10.199,10.199v85.934 c0,5.632,4.567,10.199,10.199,10.199h3.886v75.474c0,5.632,4.567,10.199,10.199,10.199h32.352c5.632,0,10.199-4.567,10.199-10.199 v-75.474h4.024c5.632,0,10.199-4.567,10.199-10.199v-85.934C389.575,324.567,385.019,320.006,379.396,319.995z M349.483,20.398 c5.247,0,9.515,4.268,9.515,9.515v289.819h-19.03v-44.146V29.913C339.968,24.667,344.235,20.398,349.483,20.398z M152.338,285.1 c-5.247,0-9.516-4.268-9.516-9.515V29.913c0-5.247,4.268-9.515,9.516-9.515s9.516,4.268,9.516,9.515v245.672 C161.854,280.833,157.586,285.1,152.338,285.1z M191.767,285.1c-5.246,0-9.515-4.268-9.515-9.515V29.913 c0-5.247,4.268-9.515,9.515-9.515c5.247,0,9.516,4.268,9.516,9.515v245.672C201.283,280.833,197.015,285.1,191.767,285.1z M231.197,285.1c-5.246,0-9.515-4.268-9.515-9.515V29.913c0-5.247,4.268-9.515,9.515-9.515c5.247,0,9.516,4.268,9.516,9.515v245.672 C240.711,280.833,236.443,285.1,231.197,285.1z M270.625,285.1c-5.247,0-9.515-4.268-9.515-9.515V29.913 c0-5.247,4.268-9.515,9.515-9.515s9.515,4.268,9.515,9.515v245.672C280.139,280.833,275.872,285.1,270.625,285.1z M310.055,285.1 c-5.247,0-9.516-4.268-9.516-9.515V29.913c0-5.247,4.269-9.515,9.516-9.515s9.515,4.268,9.515,9.515v245.672 C319.57,280.833,315.301,285.1,310.055,285.1z M328.916,405.928v-65.536h40.261v65.536H328.916z M354.954,491.602H343v-65.275 h11.953V491.602z"/> <path d="M349.798,349.833c-5.632,0-10.199,4.567-10.199,10.199v27.43c0,5.632,4.567,10.199,10.199,10.199 c5.632,0,10.199-4.567,10.199-10.199v-27.43C359.997,354.4,355.431,349.833,349.798,349.833z"/> </g>
</svg>