<!DOCTYPE svg PUBLIC "-//W3C//DTD SVG 1.1//EN" "http://www.w3.org/Graphics/SVG/1.1/DTD/svg11.dtd">
<!-- Uploaded to: SVG Repo, www.svgrepo.com, Transformed by: SVG Repo Mixer Tools -->
<svg height="80px" width="80px" version="1.1" id="Layer_1" xmlns="http://www.w3.org/2000/svg" xmlns:xlink="http://www.w3.org/1999/xlink" viewBox="0 0 510.737 510.737" xml:space="preserve" fill="#000000">
<g id="SVGRepo_bgCarrier" stroke-width="0"/>
<g id="SVGRepo_tracerCarrier" stroke-linecap="round" stroke-linejoin="round"/>
<g id="SVGRepo_iconCarrier"> <g transform="translate(1 1)"> <g> <path style="fill:#FFDD09;" d="M236.227,437.409c5.973,1.707,12.8,3.413,18.773,3.413s12.8-0.853,18.773-3.413l40.96-64.853 c-2.56-52.907-28.16-93.867-59.733-93.867s-57.173,41.813-59.733,93.867L236.227,437.409z"/> <path style="fill:#FFDD09;" d="M398.36,437.409c5.973,1.707,11.947,3.413,18.773,3.413s12.8-0.853,18.773-3.413l40.96-64.853 c-2.56-52.907-28.16-93.867-59.733-93.867s-57.173,41.813-59.733,93.867L398.36,437.409z"/> <path style="fill:#FFDD09;" d="M74.093,437.409c5.973,2.56,11.947,3.413,18.773,3.413s12.8-0.853,18.773-3.413l40.96-64.853 c-2.56-52.907-28.16-93.867-59.733-93.867s-57.173,41.813-59.733,93.867L74.093,437.409z"/> </g> <polygon style="fill:#FD9808;" points="502.467,500.555 391.533,500.555 357.4,432.289 314.733,432.289 280.6,500.555 229.4,500.555 195.267,432.289 152.6,432.289 118.467,500.555 7.533,500.555 7.533,372.555 33.133,372.555 75.8,440.822 109.933,440.822 152.6,372.555 195.267,372.555 237.933,440.822 272.067,440.822 314.733,372.555 357.4,372.555 400.067,440.822 434.2,440.822 476.867,372.555 502.467,372.555 "/> <path d="M502.467,509.089H391.533c-3.413,0-5.973-1.707-7.68-5.12l-31.573-63.147h-32.427l-31.573,63.147 c-1.707,3.413-4.267,5.12-7.68,5.12h-51.2c-3.413,0-5.973-1.707-7.68-5.12l-31.573-63.147H157.72l-31.573,63.147 c-1.707,3.413-4.267,5.12-7.68,5.12H7.533c-5.12,0-8.533-3.413-8.533-8.533v-128c0-5.12,3.413-8.533,8.533-8.533h25.6 c2.56,0,5.973,1.707,6.827,4.267l40.96,64h24.747l40.107-64c1.707-2.56,4.267-4.267,6.827-4.267h42.667 c2.56,0,5.973,1.707,6.827,4.267l40.107,64h24.747l40.107-64c1.707-2.56,4.267-4.267,6.827-4.267h42.667 c2.56,0,5.973,1.707,6.827,4.267l40.107,64h24.747l40.107-64c1.707-2.56,4.267-4.267,6.827-4.267h25.6 c5.12,0,8.533,3.413,8.533,8.533v128C511,505.675,507.587,509.089,502.467,509.089z M396.653,492.022h97.28V381.089h-11.947 l-40.107,64c-1.707,2.56-5.12,4.267-7.68,4.267h-34.133c-2.56,0-5.973-1.707-6.827-4.267l-40.96-64H319l-40.107,64 c-0.853,2.56-4.267,4.267-6.827,4.267h-34.133c-2.56,0-5.973-1.707-6.827-4.267l-40.96-64h-33.28l-40.107,64 c-0.853,2.56-4.267,4.267-6.827,4.267H75.8c-2.56,0-5.973-1.707-6.827-4.267l-40.96-64H16.067v110.933h97.28l31.573-63.147 c1.707-2.56,4.267-5.12,7.68-5.12h42.667c3.413,0,5.973,1.707,7.68,5.12l31.573,63.147h40.96l31.573-63.147 c1.707-2.56,4.267-5.12,7.68-5.12H357.4c3.413,0,5.973,1.707,7.68,5.12L396.653,492.022z"/> <path d="M255,449.355c-7.68,0-14.507-0.853-22.187-3.413l-2.56-0.853l-43.52-69.973v-2.56c2.56-58.027,31.573-102.4,68.267-102.4 c35.84,0,65.707,44.373,68.267,102.4v2.56l-43.52,69.973l-2.56,0.853C269.507,448.502,262.68,449.355,255,449.355z M241.347,430.582c8.533,2.56,17.92,2.56,27.307,0l37.547-59.733c-2.56-46.08-25.6-83.627-51.2-83.627s-47.787,37.547-51.2,83.627 L241.347,430.582z"/> <path d="M417.133,449.355c-7.68,0-14.507-0.853-21.333-3.413l-2.56-0.853l-44.373-69.973v-2.56 c2.56-58.027,31.573-102.4,68.267-102.4c35.84,0,65.707,44.373,68.267,102.4v2.56l-43.52,69.973l-2.56,0.853 C431.64,448.502,424.813,449.355,417.133,449.355z M403.48,430.582c8.533,2.56,17.92,2.56,27.307,0l37.547-59.733 c-2.56-46.08-25.6-83.627-51.2-83.627s-47.787,37.547-51.2,83.627L403.48,430.582z"/> <path d="M92.867,449.355c-7.68,0-14.507-0.853-22.187-3.413l-2.56-0.853L24.6,375.115v-2.56c2.56-58.027,31.573-102.4,68.267-102.4 c35.84,0,65.707,44.373,68.267,102.4v2.56l-43.52,69.973l-2.56,0.853C107.373,448.502,100.547,449.355,92.867,449.355z M79.213,430.582c8.533,2.56,17.92,2.56,27.307,0l37.547-59.733c-2.56-46.08-25.6-83.627-51.2-83.627s-47.787,37.547-51.2,83.627 L79.213,430.582z"/> <path d="M67.267,372.555h-0.853c-5.12,0-8.533-4.267-7.68-9.387c4.267-34.133,21.333-58.88,34.133-58.88 c5.12,0,8.533,3.413,8.533,8.533c0,4.267-3.413,7.68-6.827,8.533c-3.413,2.56-15.36,17.067-18.773,44.373 C74.947,369.995,71.533,372.555,67.267,372.555z"/> <path d="M229.4,372.555h-0.853c-4.267-0.853-7.68-5.12-7.68-9.387c4.267-33.28,21.333-58.88,34.133-58.88 c5.12,0,8.533,3.413,8.533,8.533c0,4.267-3.413,7.68-6.827,8.533c-2.56,1.707-15.36,14.507-18.773,43.52 C237.08,369.142,233.667,372.555,229.4,372.555z"/> <path d="M391.533,372.555h-0.853c-4.267-0.853-7.68-5.12-7.68-9.387c4.267-33.28,21.333-58.88,34.133-58.88 c5.12,0,8.533,3.413,8.533,8.533c0,4.267-3.413,7.68-6.827,8.533c-2.56,1.707-15.36,14.507-18.773,43.52 C399.213,369.142,395.8,372.555,391.533,372.555z M418.84,321.355L418.84,321.355L418.84,321.355z"/> <path d="M448.707,62.795H436.76l-25.6-25.6V25.249l25.6-25.6h11.947l25.6,25.6v11.947L448.707,62.795z M429.08,31.222 l13.653,13.653l13.653-13.653l-13.653-13.653L429.08,31.222z"/> <path d="M237.933,90.955c-5.12,0-8.533-3.413-8.533-8.533c0-14.507-11.093-25.6-25.6-25.6c-5.12,0-8.533-3.413-8.533-8.533 s3.413-8.533,8.533-8.533c14.507,0,25.6-11.093,25.6-25.6c0-5.12,3.413-8.533,8.533-8.533c5.12,0,8.533,3.413,8.533,8.533 c0,14.507,11.093,25.6,25.6,25.6c5.12,0,8.533,3.413,8.533,8.533s-3.413,8.533-8.533,8.533c-14.507,0-25.6,11.093-25.6,25.6 C246.467,87.542,243.053,90.955,237.933,90.955z M229.4,48.289c3.413,2.56,5.973,5.12,8.533,8.533 c2.56-3.413,5.12-5.973,8.533-8.533c-3.413-2.56-5.973-5.12-8.533-8.533C235.373,43.169,232.813,45.729,229.4,48.289z"/> <path d="M331.8,193.355c-5.12,0-8.533-3.413-8.533-8.533v-34.133c0-5.12,3.413-8.533,8.533-8.533s8.533,3.413,8.533,8.533v34.133 C340.333,189.942,336.92,193.355,331.8,193.355z"/> <path d="M348.867,176.289h-34.133c-5.12,0-8.533-3.413-8.533-8.533c0-5.12,3.413-8.533,8.533-8.533h34.133 c5.12,0,8.533,3.413,8.533,8.533C357.4,172.875,353.987,176.289,348.867,176.289z"/> <path d="M144.067,159.222c0,5.12-3.413,8.533-8.533,8.533S127,164.342,127,159.222c0-5.12,3.413-8.533,8.533-8.533 S144.067,154.102,144.067,159.222"/> <path d="M58.733,48.289c0,5.12-3.413,8.533-8.533,8.533s-8.533-3.413-8.533-8.533s3.413-8.533,8.533-8.533 S58.733,43.169,58.733,48.289"/> </g> </g>
</svg>