<!DOCTYPE svg PUBLIC "-//W3C//DTD SVG 1.1//EN" "http://www.w3.org/Graphics/SVG/1.1/DTD/svg11.dtd">
<!-- Uploaded to: SVG Repo, www.svgrepo.com, Transformed by: SVG Repo Mixer Tools -->
<svg height="80px" width="80px" version="1.1" id="Layer_1" xmlns="http://www.w3.org/2000/svg" xmlns:xlink="http://www.w3.org/1999/xlink" viewBox="0 0 496.31 496.31" xml:space="preserve" fill="#000000">
<g id="SVGRepo_bgCarrier" stroke-width="0"/>
<g id="SVGRepo_tracerCarrier" stroke-linecap="round" stroke-linejoin="round"/>
<g id="SVGRepo_iconCarrier"> <g transform="translate(1 1)"> <path style="fill:#FD9808;" d="M445.583,49.374c74.323,74.323,45.419,222.968-64.413,332.8s-258.477,137.91-331.974,63.587 s-45.419-222.968,64.413-332.8S372.086-24.948,445.583,49.374"/> <path style="fill:#FFDD09;" d="M428.241,55.981c70.194,70.194,41.29,213.058-65.239,319.587S114.434,511,44.241,440.806 S2.95,227.748,109.479,121.219S358.047-14.213,428.241,55.981"/> <path style="fill:#FFFFFF;" d="M74.796,440.806c-70.194-70.194-41.29-213.058,65.239-319.587 c61.935-61.935,137.084-98.271,202.323-102.4c-71.845-4.955-159.381,31.381-231.226,102.4 C5.428,227.748-24.301,370.613,45.892,440.806c28.903,28.903,70.194,41.29,116.439,37.987 C127.647,475.49,97.092,463.929,74.796,440.806"/> <g> <path style="fill:#1CD759;" d="M334.924,22.948L334.924,22.948c2.477,7.432-2.477,14.865-9.91,14.865h-6.606 c-6.606,0-11.561,5.781-10.735,12.387c1.652,7.432-5.781,14.039-13.213,12.387l-15.69-4.129 c-7.432-1.652-14.039,4.129-13.213,11.561l3.303,28.903c0.826,4.955-2.477,9.91-7.432,11.561l-25.6,8.258 c-0.826,0-2.477,0.826-3.303,0.826h-22.297c-5.781,0-10.735,4.955-10.735,10.735v25.6c0,5.781-4.955,10.735-10.735,10.735h-3.303 c-4.955,0-9.91,4.129-10.735,9.084l-1.652,20.645c-0.826,5.781-6.606,9.91-12.387,9.084l-18.168-2.477 c-6.606-0.826-12.387,4.129-12.387,10.735v10.735c0,6.606-5.781,11.561-11.561,10.735l-28.903-4.129 c-6.606-0.826-11.561,4.129-11.561,10.735v21.471c0,0.826,0,2.477-0.826,3.303l-7.432,22.297 c-1.652,5.781-9.084,9.084-14.865,5.781H54.15c-5.781-3.303-13.213,0-14.865,6.606l-6.606,28.077 c-0.826,3.303-3.303,6.606-6.606,7.432l-9.91,3.303c-4.955,1.652-8.258,6.606-8.258,10.735c0.826,16.516,4.129,32.206,9.91,46.245 c2.477,7.432,12.387,9.084,17.342,3.303l5.781-4.955c0.826-0.826,2.477-1.652,4.129-2.477l23.948-8.258 c4.955-1.652,8.258-6.606,7.432-12.387l-1.652-9.084c-0.826-5.781,2.477-11.561,9.084-12.387l23.123-3.303 c4.129-0.826,7.432-3.303,8.258-7.432l9.084-27.252c0-0.826,0.826-2.477,0.826-3.303v-20.645c0-6.606,5.781-11.561,11.561-10.735 l28.903,3.303c6.606,0.826,11.561-4.129,11.561-10.735v-10.735c0-6.606,5.781-11.561,12.387-10.735l18.168,2.477 c5.781,0.826,11.561-3.303,12.387-9.084l3.303-21.471c0.826-4.955,4.955-9.084,10.735-9.084h3.303 c5.781,0,10.735-4.955,10.735-10.735v-25.6c0-5.781,4.955-10.735,10.735-10.735h21.471c0.826,0,2.477,0,3.303-0.826l25.6-8.258 c4.955-1.652,7.432-6.606,7.432-11.561l-3.303-27.252c-0.826-7.432,5.781-13.213,13.213-11.561l16.516,4.129 c7.432,1.652,14.039-4.129,13.213-11.561l-1.652-13.213c-0.826-6.606,4.129-12.387,10.735-12.387h0.826 c5.781,0,10.735-4.955,10.735-10.735V50.2c0-6.606,5.781-11.561,12.387-10.735l9.084,1.652c4.129,0.826,8.258-0.826,10.736-4.129 l0,0c3.303-5.781,1.652-13.213-4.955-15.69c-18.168-8.258-37.987-12.387-59.458-13.213 C337.402,8.084,332.447,15.516,334.924,22.948"/> <path style="fill:#1CD759;" d="M480.266,109.658c-7.432-0.826-15.69,1.652-17.342,6.606l-4.955,11.561 c-1.652,3.303-4.129,5.781-7.432,6.606l-16.516,3.303c-4.129,0.826-7.432,4.129-8.258,8.258l-2.477,12.387 c-0.826,5.781-5.781,9.084-11.561,9.084l-20.645-2.477c-6.606-0.826-12.387,4.955-11.561,12.387l3.303,30.555 c0.826,4.955-2.477,9.91-7.432,11.561l-24.774,8.258c-0.826,0-2.477,0.826-3.303,0.826h-22.297 c-5.781,0-10.735,4.955-10.735,10.735v24.774c0,5.781-4.955,10.735-10.735,10.735h-3.303c-5.781,0-9.91,4.129-10.735,9.084 l-3.303,21.471c-0.826,5.781-6.606,9.91-12.387,9.084l-18.168-2.477c-6.606-0.826-12.387,4.129-12.387,10.735v10.736 c0,6.606-5.781,11.561-12.387,10.735l-28.077-3.303c-6.606-0.826-12.387,4.129-12.387,10.735v21.471c0,0.826,0,2.477-0.826,3.303 l-7.432,21.471c-2.477,6.606-9.084,9.084-14.865,6.606c-6.606-3.303-14.039,0-15.69,7.432l-7.432,29.729 c-0.826,2.477-2.477,4.955-4.129,6.606l-23.123,16.516c-4.129,3.303-4.955,11.561-4.129,18.168 c16.516,4.129,33.858,5.781,52.852,4.955l4.129-4.955c4.955-1.652,8.258-7.432,7.432-12.387l-1.652-8.258 c-0.826-5.781,3.303-12.387,9.084-13.213l23.123-3.303c4.129-0.826,7.432-3.303,9.084-7.432l9.084-27.252 c0-0.826,0.826-2.477,0.826-3.303v-21.471c0-6.606,5.781-11.561,12.387-10.735l28.077,3.303 c6.606,0.826,12.387-4.129,12.387-10.735V357.4c0-6.606,5.781-11.561,12.387-10.735l17.342,2.477 c5.781,0.826,11.561-3.303,12.387-9.084l3.303-20.645c0.826-4.955,4.955-9.084,10.735-9.084h3.303 c5.781,0,10.735-4.955,10.735-10.735v-24.774c0-5.781,4.955-10.735,10.735-10.735h22.297c0.826,0,2.477,0,3.303-0.826L410.899,255 c4.955-1.652,8.258-6.606,7.432-11.561l-4.129-28.903c-0.826-7.432,5.781-13.213,13.213-11.561l15.69,4.129 c7.432,1.652,14.865-4.129,13.213-12.387l-1.652-12.387c-0.826-6.606,4.129-12.387,10.735-12.387h1.652 c4.955,0,9.91-3.303,10.736-9.084l4.129-20.645h3.303C485.221,130.303,483.57,119.568,480.266,109.658"/> </g> <path d="M157.376,495.31c-45.419,0-85.058-14.039-114.787-42.942C5.428,414.381-8.611,357.4,3.776,291.335 c12.387-64.413,49.548-129.652,103.226-184.155C220.137-5.129,374.563-34.032,451.363,43.594l0,0 c77.626,77.626,48.723,232.052-64.413,344.361C317.583,457.323,231.699,495.31,157.376,495.31z M336.576,16.342 c-69.368,0-151.123,36.335-218.013,103.226c-52.026,52.026-86.71,113.961-99.097,175.071 c-10.735,60.284,1.652,111.484,35.51,145.342c71.019,71.019,214.71,42.116,321.239-64.413s135.432-250.219,64.413-321.239l0,0 C414.202,28.729,377.866,16.342,336.576,16.342z"/> <path d="M27.725,412.729c-1.652,0-2.477,0-4.129-0.826c-6.606-1.652-11.561-5.781-13.213-11.561 c-5.781-14.865-9.084-31.381-9.91-48.723c-0.826-8.258,4.955-16.516,13.213-18.994l9.91-3.303c0.826,0,1.652-0.826,1.652-1.652 l7.432-28.077c1.652-5.781,4.955-9.91,10.735-12.387c4.955-2.477,11.561-2.477,16.516,0c1.652,0.826,2.477,0.826,2.477,0 c0,0,0.826-0.826,1.652-1.652l5.781-21.471v-22.297c0-4.955,2.477-10.735,6.606-14.039c3.303-3.303,9.084-4.955,14.039-4.955 l28.903,3.303c0.826,0,1.652,0,1.652-0.826c0,0,0.826-0.826,0.826-1.652v-10.735c0-5.781,2.477-10.735,6.606-14.039 c4.129-3.303,9.91-4.955,14.865-4.129l18.168,2.477c0.826,0,2.477-0.826,2.477-1.652l3.303-21.471 c1.652-9.084,9.084-16.516,18.994-16.516h3.303c1.652,0,2.477-0.826,2.477-2.477v-25.6c0-10.735,8.258-18.994,18.994-18.994h22.297 l25.6-8.258c0.826,0,1.652-1.652,1.652-2.477l-3.303-28.903c-0.826-5.781,1.652-12.387,6.606-16.516s10.736-5.781,17.342-4.129 l15.69,4.129c0.826,0,1.652,0,2.477-0.826c0,0,0.826-0.826,0.826-2.477c-0.826-5.781,0-11.561,4.129-15.69 c3.303-4.129,9.084-6.606,14.865-6.606h6.606c0.826,0,1.652-0.826,1.652-0.826s0.826-0.826,0-2.477l7.432-3.303l-7.432,3.303 c-2.477-5.781-1.652-12.387,2.477-18.168C333.273,2.303,339.879-1,345.66-1c22.297,0.826,43.768,5.781,62.761,14.039 c4.955,2.477,9.084,6.606,10.735,12.387s0.826,11.561-2.477,15.69c-4.129,6.606-12.387,9.91-19.819,8.258l-9.91-1.652 c-0.826,0-1.652,0-1.652,0.826c0,0-0.826,0.826-0.826,1.652v11.561c0,10.735-8.258,18.994-18.994,18.994l0,0 c-1.652,0-1.652,0.826-2.477,0.826c0,0-0.826,0.826-0.826,1.652l1.652,13.213c0.826,6.606-1.652,12.387-5.781,16.516 c-4.955,4.129-11.561,5.781-17.342,4.129l-16.516-4.129c-0.826,0-1.652,0-2.477,0.826c0,0-0.826,0.826-0.826,1.652l3.303,28.903 c0.826,9.084-4.129,17.342-12.387,19.819l-25.6,8.258c-1.652,0.826-4.129,0.826-5.781,0.826h-22.297 c-1.652,0-2.477,0.826-2.477,2.477v25.6c0,10.735-8.258,18.994-18.994,18.994h-3.303c-0.826,0-2.477,0.826-2.477,1.652 l-3.303,21.471c-1.652,9.91-10.735,17.342-21.471,15.69l-18.168-2.477c-0.826,0-1.652,0-1.652,0.826c0,0-0.826,0.826-0.826,1.652 v10.735c0,4.955-2.477,10.736-6.606,14.039c-4.129,3.303-9.084,4.955-14.865,4.955l-28.903-3.303c-0.826,0-1.652,0-1.652,0.826 c0,0-0.826,0.826-0.826,1.652v21.471c0,1.652,0,4.129-0.826,5.781l-9.084,27.252c-2.477,6.606-8.258,11.561-14.865,12.387 l-23.123,3.303c-0.826,0-1.652,0.826-1.652,0.826s-0.826,0.826,0,1.652l1.652,9.084c1.652,9.084-3.303,18.994-12.387,21.471 l-23.948,8.258c0,0-0.826,0-0.826,0.826l-6.606,6.607C37.634,410.252,32.679,412.729,27.725,412.729z M50.021,301.245h-0.826 c0,0-0.826,0.826-1.652,1.652L40.937,331.8c-1.652,6.606-6.606,11.561-12.387,13.213l-9.91,3.303c-0.826,0-1.652,1.652-1.652,2.477 c0.826,15.69,4.129,30.555,9.084,43.768c0,0.826,0.826,0.826,1.652,1.652c0,0,1.652,0,2.477-0.826l5.781-5.781 c2.477-2.477,4.955-3.303,7.432-4.955l23.948-8.258c0.826,0,1.652-1.652,1.652-2.477l-1.652-9.084 c-0.826-4.955,0-10.735,3.303-14.865s7.432-7.432,12.387-7.432l23.123-3.303c0.826,0,1.652-0.826,1.652-1.652l9.084-27.252v-22.297 c0-5.781,2.477-10.735,6.606-14.039c4.129-3.303,9.084-4.955,14.865-4.955l28.903,3.303c0.826,0,1.652,0,1.652-0.826 c0,0,0.826-0.826,0.826-1.652v-10.735c0-5.781,2.477-10.735,6.606-14.039c4.129-3.303,9.91-4.955,14.865-4.129l18.168,2.477 c1.652,0,2.477-0.826,2.477-1.652l3.303-21.471c1.652-9.084,9.084-16.516,18.994-16.516h3.303c1.652,0,2.477-0.826,2.477-2.477 v-25.6c0-10.735,8.258-18.994,18.994-18.994h21.471l25.6-8.258c0.826,0,1.652-1.652,1.652-2.477l-2.477-28.077 c-0.826-5.781,1.652-12.387,6.606-16.516c4.955-4.129,10.735-5.781,17.342-4.129l16.516,4.129c0.826,0,1.652,0,2.477-0.826 c0,0,0.826-0.826,0.826-2.477l-1.652-13.213c-0.826-5.781,0.826-10.735,4.129-14.865c3.303-4.129,9.084-6.606,14.039-6.606l0,0 c1.652,0,2.477-0.826,2.477-2.477V50.2c0-5.781,2.477-10.735,6.606-14.865c4.129-3.303,9.91-4.955,15.69-4.129l9.084,1.652 c0.826,0,1.652,0,2.477-0.826c0.826-0.826,0.826-1.652,0.826-2.477s-0.826-0.826-1.652-1.652 c-16.516-7.432-35.51-11.561-56.155-12.387c-0.826,0-1.652,0.826-1.652,0.826s-0.826,1.652,0,2.477l0,0 c2.477,5.781,1.652,12.387-1.652,17.342c-3.303,4.955-9.084,8.258-15.69,8.258h-6.606c-0.826,0-1.652,0.826-1.652,0.826 s-0.826,0.826-0.826,1.652c1.652,6.606-0.826,13.213-5.781,17.342s-11.561,6.606-17.342,4.955l-15.69-4.129 c-0.826,0-1.652,0-2.477,0.826c-0.826,0.826-0.826,0.826-0.826,1.652l3.303,28.903c0.826,9.084-4.129,17.342-12.387,19.819 l-25.6,8.258c-1.652,0.826-4.129,0.826-5.781,0.826h-22.297c-1.652,0-2.477,0.826-2.477,2.477v25.6 c0,10.735-8.258,18.994-18.994,18.994h-3.303c-0.826,0-2.477,0.826-2.477,1.652l-3.303,23.123 c-1.652,9.91-10.735,17.342-21.471,15.69l-18.168-2.477c-0.826,0-1.652,0-1.652,0.826c0,0-0.826,0.826-0.826,1.652v10.735 c0,4.955-2.477,10.735-6.606,14.039c-4.129,3.303-9.084,4.955-14.865,4.955l-28.903-3.303c-0.826,0-1.652,0-1.652,0.826 c0,0-0.826,0.826-0.826,1.652v21.471c0,1.652,0,4.129-0.826,5.781l-7.432,21.471c-1.652,4.955-5.781,9.084-10.735,11.561 c-4.955,2.477-10.735,1.652-15.69-0.826C50.847,301.245,50.021,301.245,50.021,301.245z"/> <path d="M158.202,495.31c-16.516,0-32.206-1.652-46.245-5.781c-3.303-0.826-5.781-3.303-5.781-6.606 c-1.652-9.084,0-20.645,7.432-26.426l23.123-16.516c0.826,0,0.826-0.826,0.826-1.652l7.432-29.729 c1.652-5.781,4.955-9.91,10.735-12.387c4.955-2.477,11.561-2.477,16.516,0c0.826,0.826,1.652,0,2.477,0 c0,0,0.826-0.826,1.652-1.652l7.432-21.471v-0.826v-21.471c0-5.781,2.477-10.735,6.606-14.039c4.129-3.303,9.91-4.955,14.865-4.955 l28.077,3.303c0.826,0,1.652,0,1.652-0.826c0-0.826,0.826-0.826,0.826-1.652V321.89c0-5.781,2.477-10.735,6.606-14.865 c4.129-3.303,9.91-4.955,14.865-4.129l17.342,2.477c0.826,0,1.652,0,1.652-0.826c0,0,0.826-0.826,0.826-1.652l3.303-20.645 c1.652-9.084,9.084-16.516,18.994-16.516h3.303c1.652,0,2.477-0.826,2.477-2.477v-24.774c0-10.735,8.258-18.994,18.994-18.994 h22.297h0.826l24.774-8.258c0.826,0,1.652-1.652,1.652-2.477L371.26,178.2c-0.826-5.781,1.652-11.561,4.955-15.69 c4.129-4.129,9.91-5.781,15.69-5.781l19.819,1.652c0.826,0,2.477-0.826,2.477-2.477l2.477-12.387 c1.652-7.432,7.432-13.213,14.865-14.865l16.516-3.303c0.826,0,1.652-0.826,1.652-1.652l4.955-11.561 c4.129-9.91,16.516-12.387,25.6-11.561c3.303,0,6.606,2.477,7.432,5.781c2.477,9.91,4.955,21.471,5.781,32.206 c0,2.477-0.826,4.955-2.477,6.606c-0.826,0.826-1.652,1.652-2.477,1.652l-1.652,15.69c-1.652,9.084-9.91,15.69-18.994,15.69h-1.652 c-0.826,0-1.652,0.826-1.652,0.826s-0.826,0.826-0.826,2.477l1.652,12.387c0.826,6.606-1.652,12.387-5.781,16.516 c-4.955,4.129-11.561,5.781-17.342,4.129l-15.69-4.129c-0.826,0-1.652,0-2.477,0.826c0,0-0.826,0.826-0.826,2.477l3.303,28.077 c0.826,9.084-4.129,17.342-13.213,20.645l-24.774,8.258c-1.652,0.826-4.129,0.826-5.781,0.826h-22.297 c-1.652,0-2.477,0.826-2.477,2.477v24.774c0,10.735-8.258,18.994-18.994,18.994h-3.303c-1.652,0-2.477,0.826-2.477,2.477 l-3.303,20.645c-0.826,4.955-3.303,9.91-7.432,12.387c-4.129,3.303-9.084,4.129-14.039,3.303l-18.994-1.652 c-0.826,0-1.652,0-2.477,0.826c0,0-0.826,0.826-0.826,1.652v10.735c0,5.781-2.477,10.735-6.606,14.039 c-4.129,3.303-9.084,4.955-14.865,4.955l-28.077-3.303c-0.826,0-1.652,0-1.652,0.826c0,0.826-0.826,0.826-0.826,1.652v21.471 c0,1.652,0,4.129-0.826,5.781l-9.084,27.252c-2.477,6.606-8.258,11.561-15.69,13.213l-23.123,3.303 c-0.826,0-1.652,0.826-1.652,0.826s-0.826,0.826-0.826,1.652l1.652,8.258c1.652,8.258-2.477,17.342-10.735,20.645l-2.477,3.303 c-1.652,1.652-3.303,2.477-5.781,2.477C163.157,495.31,160.679,495.31,158.202,495.31z M121.041,475.49 c13.213,2.477,26.426,4.129,40.465,3.303l1.652-1.652c0.826-0.826,2.477-1.652,3.303-2.477c1.652-0.826,1.652-1.652,1.652-3.303 l-1.652-8.258c-0.826-4.955,0-10.735,3.303-14.865c3.303-4.129,7.432-7.432,13.213-8.258l23.123-3.303 c0.826,0,1.652-0.826,2.477-1.652l9.084-28.077v-21.471c0-5.781,2.477-10.735,6.606-14.039c4.129-3.303,9.084-4.955,14.865-4.955 l28.077,3.303c0.826,0,1.652,0,1.652-0.826c0,0,0.826-0.826,0.826-1.652v-10.735c0-5.781,2.477-10.735,6.606-14.865 c4.129-3.303,9.91-4.955,14.865-4.129l17.342,2.477c0.826,0,1.652,0,1.652-0.826c0,0,0.826-0.826,0.826-1.652l3.303-20.645 c1.652-9.084,9.084-16.516,18.994-16.516h3.303c1.652,0,2.477-0.826,2.477-2.477v-24.774c0-10.735,8.258-18.994,18.994-18.994 h22.297h0.826l24.774-8.258c0.826,0,1.652-1.652,1.652-2.477l-3.303-28.077c-0.826-6.606,1.652-12.387,6.606-16.516 c4.955-4.129,11.561-5.781,17.342-4.129l15.69,4.129c0.826,0,1.652,0,2.477-0.826c0,0,0.826-0.826,0.826-2.477l-1.652-12.387 c-0.826-5.781,0.826-10.735,4.129-14.865c3.303-4.129,9.084-6.606,14.865-6.606h1.652c1.652,0,2.477-0.826,2.477-2.477 l4.129-20.645c0-1.652,1.652-3.303,2.477-4.129c-0.826-5.781-1.652-10.735-3.303-16.516c-2.477,0-3.303,0.826-4.129,1.652 l-4.955,11.561c-2.477,5.781-7.432,9.91-14.039,10.735l-16.516,3.303c-0.826,0-1.652,0.826-1.652,1.652l-2.477,12.387 c-1.652,9.91-10.735,16.516-20.645,15.69l-17.342-1.652c-0.826,0-1.652,0.826-2.477,0.826c-0.826,0-0.826,0.826-0.826,2.477 l3.303,30.555c0.826,9.084-4.129,17.342-13.213,20.645l-24.774,8.258c-1.652,0.826-4.129,0.826-5.781,0.826h-22.297 c-1.652,0-2.477,0.826-2.477,2.477v24.774c0,10.735-8.258,18.994-18.994,18.994h-3.303c-1.652,0-2.477,0.826-2.477,2.477 l-3.303,20.645c-0.826,4.955-3.303,9.91-7.432,12.387c-4.129,3.303-9.084,4.129-14.039,3.303l-17.342-2.477 c-0.826,0-1.652,0-2.477,0.826c0,0-0.826,0.826-0.826,1.652v10.735c0,5.781-2.477,10.735-6.606,14.039 c-4.129,3.303-9.084,4.955-14.865,4.955l-28.077-3.303c-0.826,0-1.652,0-1.652,0.826c0,0-0.826,0.826-0.826,1.652v21.471 c0,1.652,0,4.129-0.826,5.781l-7.432,21.471c-1.652,4.955-5.781,9.91-10.735,11.561c-4.955,2.477-10.735,1.652-15.69-0.826 c-0.826-0.826-1.652,0-2.477,0c-0.826,0-0.826,0.826-1.652,1.652l-7.432,29.729c-0.826,4.129-4.129,8.258-7.432,10.736 l-23.123,16.516C121.866,470.535,121.041,472.187,121.041,475.49z"/> </g> </g>
</svg>