<!DOCTYPE svg PUBLIC "-//W3C//DTD SVG 1.1//EN" "http://www.w3.org/Graphics/SVG/1.1/DTD/svg11.dtd">
<!-- Uploaded to: SVG Repo, www.svgrepo.com, Transformed by: SVG Repo Mixer Tools -->
<svg height="80px" width="80px" version="1.1" id="Layer_1" xmlns="http://www.w3.org/2000/svg" xmlns:xlink="http://www.w3.org/1999/xlink" viewBox="0 0 511.844 511.844" xml:space="preserve" fill="#000000">
<g id="SVGRepo_bgCarrier" stroke-width="0"/>
<g id="SVGRepo_tracerCarrier" stroke-linecap="round" stroke-linejoin="round"/>
<g id="SVGRepo_iconCarrier"> <path style="fill:#FECD57;" d="M255.922,351.928c-52.921,0-95.955-43.049-95.955-95.971c0-52.921,43.034-95.978,95.955-95.978 s95.971,43.057,95.971,95.978C351.893,308.879,308.843,351.928,255.922,351.928z"/> <g> <path style="fill:#F5BA45;" d="M255.922,149.318c-58.889,0-106.624,47.743-106.624,106.639 c0,58.889,47.735,106.624,106.624,106.624c58.904,0,106.639-47.735,106.639-106.624 C362.561,197.061,314.826,149.318,255.922,149.318z M316.247,316.283c-16.104,16.104-37.536,24.977-60.325,24.977 c-22.79,0-44.206-8.873-60.326-24.977c-16.12-16.121-24.992-37.536-24.992-60.326s8.872-44.205,24.992-60.325 c16.12-16.112,37.536-24.984,60.326-24.984c22.789,0,44.221,8.872,60.325,24.984c16.12,16.12,24.992,37.536,24.992,60.325 C341.239,278.747,332.367,300.162,316.247,316.283z"/> <path style="fill:#F5BA45;" d="M255.922,0.027c-5.889,0-10.669,4.78-10.669,10.669v106.639c0,5.889,4.78,10.661,10.669,10.661 s10.668-4.772,10.668-10.661V10.696C266.59,4.807,261.811,0.027,255.922,0.027z"/> </g> <path style="fill:#FECD57;" d="M142.534,38.227c-2.952-5.1-9.466-6.85-14.573-3.905c-5.092,2.944-6.842,9.466-3.905,14.558 l53.328,92.354c2.937,5.1,9.45,6.842,14.558,3.897c5.092-2.944,6.841-9.466,3.905-14.566L142.534,38.227z"/> <path style="fill:#F5BA45;" d="M141.207,177.411l-92.362-53.32c-5.092-2.944-11.622-1.195-14.558,3.905 c-2.952,5.092-1.203,11.613,3.905,14.558l92.347,53.328c5.108,2.944,11.622,1.195,14.574-3.905 C148.064,186.877,146.315,180.356,141.207,177.411z"/> <g> <path style="fill:#FECD57;" d="M117.308,245.289H10.653C4.78,245.289,0,250.069,0,255.957c0,5.888,4.78,10.661,10.653,10.661 h106.655c5.889,0,10.653-4.772,10.653-10.661C127.961,250.068,123.197,245.289,117.308,245.289z"/> <path style="fill:#FECD57;" d="M501.191,245.289h-106.64c-5.889,0-10.668,4.78-10.668,10.668c0,5.888,4.779,10.661,10.668,10.661 h106.64c5.89,0,10.653-4.772,10.653-10.661C511.844,250.068,507.08,245.289,501.191,245.289z"/> </g> <path style="fill:#F5BA45;" d="M477.557,127.997c-2.936-5.1-9.465-6.85-14.558-3.905l-92.362,53.32 c-5.092,2.944-6.842,9.466-3.905,14.566c2.952,5.1,9.481,6.849,14.573,3.905l92.363-53.328 C478.76,139.61,480.51,133.089,477.557,127.997z"/> <path style="fill:#FECD57;" d="M383.883,34.322c-5.107-2.944-11.621-1.195-14.574,3.905l-53.296,92.339 c-2.952,5.1-1.202,11.622,3.905,14.566c5.092,2.944,11.621,1.195,14.558-3.897l53.312-92.354 C390.725,43.788,388.99,37.266,383.883,34.322z"/> <path style="fill:#965353;" d="M255.922,255.903C114.59,255.903,0,370.485,0,511.817h511.844 C511.844,370.484,397.27,255.903,255.922,255.903z"/> <g> <path style="fill:#7F4545;" d="M412.624,382.31c9.997-22.946,20.29-40.237,26.226-49.47c-5.045-5.154-10.309-10.105-15.791-14.823 c-5.889,8.825-17.917,28.163-29.741,55.202c-14.151,32.35-30.491,82.006-30.429,138.598h21.322 C384.164,459.13,399.409,412.66,412.624,382.31z"/> <path style="fill:#7F4545;" d="M304.594,331.871c16.934-28.209,34.834-47.922,45.189-58.201 c-7.295-2.881-14.745-5.428-22.352-7.638c-11.169,11.95-26.148,30.069-40.66,54.093c-16.214,26.867-28.476,55.64-36.442,85.506 c-9.106,34.177-12.559,69.854-10.309,106.186h21.368C256.125,431.686,281.727,369.984,304.594,331.871z"/> <path style="fill:#7F4545;" d="M185.49,323.219c26.71-37.333,54.655-60.498,63.277-67.215c-12.402,0.344-24.586,1.57-36.489,3.616 c-12.621,12.177-28.242,29.093-43.674,50.54c-19.931,27.803-35.38,57.482-45.892,88.254 c-12.48,36.551-17.979,74.664-16.386,113.402h21.353C124.681,444.557,144.112,381.138,185.49,323.219z"/> </g> </g>
</svg>